<?xml version="1.0" encoding="UTF-8"?>
<!--Generator: Apple Native CoreSVG 232.5-->
<!DOCTYPE svg
PUBLIC "-//W3C//DTD SVG 1.1//EN"
       "http://www.w3.org/Graphics/SVG/1.1/DTD/svg11.dtd">
<svg version="1.1" xmlns="http://www.w3.org/2000/svg" xmlns:xlink="http://www.w3.org/1999/xlink" width="20.2344" height="19.7949">
 <g>
  <rect height="19.7949" opacity="0" width="20.2344" x="0" y="0"/>
  <path d="M9.94141 1.67969C10.4004 1.67969 10.7812 1.29883 10.7812 0.839844C10.7812 0.380859 10.4004 0 9.94141 0C9.48242 0 9.10156 0.380859 9.10156 0.839844C9.10156 1.29883 9.48242 1.67969 9.94141 1.67969ZM12.7344 2.13867C13.1934 2.13867 13.5742 1.75781 13.5742 1.29883C13.5742 0.839844 13.1934 0.458984 12.7344 0.458984C12.2754 0.458984 11.8945 0.839844 11.8945 1.29883C11.8945 1.75781 12.2754 2.13867 12.7344 2.13867ZM15.2734 3.41797C15.7324 3.41797 16.1133 3.03711 16.1133 2.57812C16.1133 2.11914 15.7324 1.73828 15.2734 1.73828C14.8145 1.73828 14.4336 2.11914 14.4336 2.57812C14.4336 3.03711 14.8145 3.41797 15.2734 3.41797ZM17.2754 5.42969C17.7344 5.42969 18.1152 5.04883 18.1152 4.58984C18.1152 4.13086 17.7344 3.75 17.2754 3.75C16.8164 3.75 16.4355 4.13086 16.4355 4.58984C16.4355 5.04883 16.8164 5.42969 17.2754 5.42969ZM18.5547 7.92969C19.0137 7.92969 19.3945 7.54883 19.3945 7.08984C19.3945 6.63086 19.0137 6.25 18.5547 6.25C18.0957 6.25 17.7148 6.63086 17.7148 7.08984C17.7148 7.54883 18.0957 7.92969 18.5547 7.92969ZM19.0332 10.7324C19.4922 10.7324 19.873 10.3516 19.873 9.89258C19.873 9.43359 19.4922 9.05273 19.0332 9.05273C18.5742 9.05273 18.1934 9.43359 18.1934 9.89258C18.1934 10.3516 18.5742 10.7324 19.0332 10.7324ZM18.5547 13.5352C19.0137 13.5352 19.3945 13.1543 19.3945 12.6953C19.3945 12.2363 19.0137 11.8555 18.5547 11.8555C18.0957 11.8555 17.7148 12.2363 17.7148 12.6953C17.7148 13.1543 18.0957 13.5352 18.5547 13.5352ZM17.2754 16.0449C17.7344 16.0449 18.1152 15.6641 18.1152 15.2051C18.1152 14.7461 17.7344 14.3652 17.2754 14.3652C16.8164 14.3652 16.4355 14.7461 16.4355 15.2051C16.4355 15.6641 16.8164 16.0449 17.2754 16.0449ZM15.2734 18.0469C15.7324 18.0469 16.1133 17.666 16.1133 17.207C16.1133 16.748 15.7324 16.3672 15.2734 16.3672C14.8145 16.3672 14.4336 16.748 14.4336 17.207C14.4336 17.666 14.8145 18.0469 15.2734 18.0469ZM12.7344 19.3262C13.1934 19.3262 13.5742 18.9453 13.5742 18.4863C13.5742 18.0273 13.1934 17.6465 12.7344 17.6465C12.2754 17.6465 11.8945 18.0273 11.8945 18.4863C11.8945 18.9453 12.2754 19.3262 12.7344 19.3262ZM9.94141 19.7852C10.4004 19.7852 10.7812 19.4043 10.7812 18.9453C10.7812 18.4863 10.4004 18.1055 9.94141 18.1055C9.48242 18.1055 9.10156 18.4863 9.10156 18.9453C9.10156 19.4043 9.48242 19.7852 9.94141 19.7852ZM7.14844 19.3262C7.60742 19.3262 7.98828 18.9453 7.98828 18.4863C7.98828 18.0273 7.60742 17.6465 7.14844 17.6465C6.67969 17.6465 6.30859 18.0273 6.30859 18.4863C6.30859 18.9453 6.67969 19.3262 7.14844 19.3262ZM4.60938 18.0469C5.06836 18.0469 5.44922 17.666 5.44922 17.207C5.44922 16.748 5.06836 16.3672 4.60938 16.3672C4.14062 16.3672 3.76953 16.748 3.76953 17.207C3.76953 17.666 4.14062 18.0469 4.60938 18.0469ZM2.59766 16.0449C3.05664 16.0449 3.4375 15.6641 3.4375 15.2051C3.4375 14.7461 3.05664 14.3652 2.59766 14.3652C2.13867 14.3652 1.75781 14.7461 1.75781 15.2051C1.75781 15.6641 2.13867 16.0449 2.59766 16.0449ZM1.31836 13.5352C1.77734 13.5352 2.1582 13.1543 2.1582 12.6953C2.1582 12.2363 1.77734 11.8555 1.31836 11.8555C0.859375 11.8555 0.478516 12.2363 0.478516 12.6953C0.478516 13.1543 0.859375 13.5352 1.31836 13.5352ZM0.839844 10.7324C1.29883 10.7324 1.67969 10.3516 1.67969 9.89258C1.67969 9.43359 1.29883 9.05273 0.839844 9.05273C0.380859 9.05273 0 9.43359 0 9.89258C0 10.3516 0.380859 10.7324 0.839844 10.7324ZM1.31836 7.92969C1.77734 7.92969 2.1582 7.54883 2.1582 7.08984C2.1582 6.63086 1.77734 6.25 1.31836 6.25C0.859375 6.25 0.478516 6.63086 0.478516 7.08984C0.478516 7.54883 0.859375 7.92969 1.31836 7.92969ZM2.59766 5.42969C3.05664 5.42969 3.4375 5.04883 3.4375 4.58984C3.4375 4.13086 3.05664 3.75 2.59766 3.75C2.13867 3.75 1.75781 4.13086 1.75781 4.58984C1.75781 5.04883 2.13867 5.42969 2.59766 5.42969ZM4.60938 3.41797C5.06836 3.41797 5.44922 3.03711 5.44922 2.57812C5.44922 2.11914 5.06836 1.73828 4.60938 1.73828C4.14062 1.73828 3.76953 2.11914 3.76953 2.57812C3.76953 3.03711 4.14062 3.41797 4.60938 3.41797ZM7.14844 2.13867C7.60742 2.13867 7.98828 1.75781 7.98828 1.29883C7.98828 0.839844 7.60742 0.458984 7.14844 0.458984C6.67969 0.458984 6.30859 0.839844 6.30859 1.29883C6.30859 1.75781 6.67969 2.13867 7.14844 2.13867Z" fill="#ffffff" fill-opacity="0.85"/>
 </g>
</svg>
